<svg width="672" height="234" viewBox="0 0 672 234" fill="none" xmlns="http://www.w3.org/2000/svg">
<path d="M156.703 85.4688V185H143.51V85.4688H156.703ZM254.252 135.439V171.875C253.021 173.698 251.062 175.749 248.373 178.027C245.684 180.26 241.97 182.22 237.23 183.906C232.536 185.547 226.475 186.367 219.047 186.367C212.986 186.367 207.403 185.319 202.299 183.223C197.24 181.081 192.842 177.982 189.105 173.926C185.414 169.824 182.543 164.857 180.492 159.023C178.487 153.145 177.484 146.491 177.484 139.062V131.338C177.484 123.91 178.35 117.279 180.082 111.445C181.859 105.612 184.457 100.667 187.875 96.6113C191.293 92.5098 195.486 89.4108 200.453 87.3145C205.421 85.1725 211.117 84.1016 217.543 84.1016C225.154 84.1016 231.511 85.4232 236.615 88.0664C241.765 90.6641 245.775 94.2643 248.646 98.8672C251.563 103.47 253.432 108.711 254.252 114.59H241.059C240.466 110.99 239.281 107.708 237.504 104.746C235.772 101.784 233.288 99.4141 230.053 97.6367C226.817 95.8138 222.647 94.9023 217.543 94.9023C212.94 94.9023 208.952 95.7454 205.58 97.4316C202.208 99.1178 199.428 101.533 197.24 104.678C195.053 107.822 193.412 111.628 192.318 116.094C191.27 120.56 190.746 125.596 190.746 131.201V139.062C190.746 144.805 191.407 149.932 192.729 154.443C194.096 158.955 196.033 162.806 198.539 165.996C201.046 169.141 204.031 171.533 207.494 173.174C211.003 174.814 214.877 175.635 219.115 175.635C223.809 175.635 227.615 175.247 230.531 174.473C233.448 173.652 235.727 172.695 237.367 171.602C239.008 170.462 240.261 169.391 241.127 168.389V146.104H218.09V135.439H254.252Z" fill="#3F87D9"/>
<path d="M156.703 85.4688H160.703V81.4688H156.703V85.4688ZM156.703 185V189H160.703V185H156.703ZM143.51 185H139.51V189H143.51V185ZM143.51 85.4688V81.4688H139.51V85.4688H143.51ZM152.703 85.4688V185H160.703V85.4688H152.703ZM156.703 181H143.51V189H156.703V181ZM147.51 185V85.4688H139.51V185H147.51ZM143.51 89.4688H156.703V81.4688H143.51V89.4688ZM254.252 135.439H258.252V131.439H254.252V135.439ZM254.252 171.875L257.567 174.113L258.252 173.099V171.875H254.252ZM248.373 178.027L250.929 181.104L250.944 181.092L250.959 181.079L248.373 178.027ZM237.23 183.906L238.55 187.682L238.561 187.679L238.571 187.675L237.23 183.906ZM202.299 183.223L200.739 186.906L200.759 186.915L200.779 186.923L202.299 183.223ZM189.105 173.926L186.132 176.602L186.148 176.619L186.164 176.636L189.105 173.926ZM180.492 159.023L176.706 160.315L176.712 160.332L176.719 160.35L180.492 159.023ZM180.082 111.445L176.256 110.279L176.252 110.293L176.247 110.307L180.082 111.445ZM187.875 96.6113L190.934 99.1889L190.941 99.1805L190.948 99.1721L187.875 96.6113ZM200.453 87.3145L202.008 90.9997L202.023 90.9937L202.037 90.9875L200.453 87.3145ZM236.615 88.0664L234.776 91.6184L234.795 91.6282L234.814 91.6378L236.615 88.0664ZM248.646 98.8672L245.253 100.984L245.26 100.996L245.268 101.008L248.646 98.8672ZM254.252 114.59V118.59H258.849L258.214 114.037L254.252 114.59ZM241.059 114.59L237.112 115.239L237.663 118.59H241.059V114.59ZM237.504 104.746L234.051 106.765L234.062 106.785L234.074 106.804L237.504 104.746ZM230.053 97.6367L228.089 101.122L228.108 101.132L228.127 101.143L230.053 97.6367ZM205.58 97.4316L203.791 93.8539L205.58 97.4316ZM192.318 116.094L188.433 115.142L188.429 115.161L188.424 115.18L192.318 116.094ZM192.729 154.443L188.89 155.568L188.895 155.586L188.9 155.603L192.729 154.443ZM198.539 165.996L195.394 168.467L195.402 168.478L195.411 168.489L198.539 165.996ZM207.494 173.174L205.782 176.789L205.791 176.793L205.8 176.797L207.494 173.174ZM230.531 174.473L231.558 178.339L231.586 178.331L231.614 178.323L230.531 174.473ZM237.367 171.602L239.586 174.93L239.618 174.909L239.649 174.887L237.367 171.602ZM241.127 168.389L244.154 171.003L245.127 169.877V168.389H241.127ZM241.127 146.104H245.127V142.104H241.127V146.104ZM218.09 146.104H214.09V150.104H218.09V146.104ZM218.09 135.439V131.439H214.09V135.439H218.09ZM250.252 135.439V171.875H258.252V135.439H250.252ZM250.937 169.637C249.996 171.031 248.343 172.81 245.787 174.976L250.959 181.079C253.781 178.688 256.047 176.365 257.567 174.113L250.937 169.637ZM245.817 174.95C243.611 176.783 240.365 178.546 235.89 180.138L238.571 187.675C243.576 185.894 247.757 183.738 250.929 181.104L245.817 174.95ZM235.911 180.13C231.795 181.569 226.226 182.367 219.047 182.367V190.367C226.725 190.367 233.277 189.525 238.55 187.682L235.911 180.13ZM219.047 182.367C213.455 182.367 208.395 181.402 203.819 179.523L200.779 186.923C206.411 189.236 212.516 190.367 219.047 190.367V182.367ZM203.858 179.539C199.327 177.62 195.4 174.854 192.047 171.215L186.164 176.636C190.285 181.11 195.154 184.541 200.739 186.906L203.858 179.539ZM192.079 171.25C188.781 167.586 186.163 163.092 184.266 157.697L176.719 160.35C178.923 166.622 182.047 172.063 186.132 176.602L192.079 171.25ZM184.278 157.732C182.439 152.341 181.484 146.135 181.484 139.062H173.484C173.484 146.847 174.535 153.948 176.706 160.315L184.278 157.732ZM181.484 139.062V131.338H173.484V139.062H181.484ZM181.484 131.338C181.484 124.213 182.316 117.977 183.917 112.584L176.247 110.307C174.385 116.581 173.484 123.606 173.484 131.338H181.484ZM183.908 112.611C185.551 107.219 187.913 102.774 190.934 99.1889L184.816 94.0337C181.001 98.5609 178.167 104.005 176.256 110.279L183.908 112.611ZM190.948 99.1721C193.953 95.5661 197.623 92.8503 202.008 90.9997L198.898 83.6292C193.348 85.9713 188.633 89.4534 184.802 94.0506L190.948 99.1721ZM202.037 90.9875C206.419 89.0979 211.561 88.1016 217.543 88.1016V80.1016C210.673 80.1016 204.422 81.2472 198.869 83.6414L202.037 90.9875ZM217.543 88.1016C224.713 88.1016 230.394 89.3492 234.776 91.6184L238.455 84.5144C232.628 81.4971 225.594 80.1016 217.543 80.1016V88.1016ZM234.814 91.6378C239.353 93.9273 242.794 97.0424 245.253 100.984L252.04 96.7502C248.757 91.4862 244.177 87.4008 238.417 84.495L234.814 91.6378ZM245.268 101.008C247.853 105.088 249.542 109.778 250.29 115.143L258.214 114.037C257.322 107.644 255.274 101.853 252.025 96.7262L245.268 101.008ZM254.252 110.59H241.059V118.59H254.252V110.59ZM245.006 113.94C244.336 109.871 242.985 106.107 240.934 102.688L234.074 106.804C235.577 109.31 236.596 112.109 237.112 115.239L245.006 113.94ZM240.957 102.727C238.832 99.0929 235.799 96.2292 231.979 94.1308L228.127 101.143C230.778 102.599 232.712 104.475 234.051 106.765L240.957 102.727ZM232.016 94.1517C227.998 91.8882 223.089 90.9023 217.543 90.9023V98.9023C222.205 98.9023 225.636 99.7394 228.089 101.122L232.016 94.1517ZM217.543 90.9023C212.454 90.9023 207.828 91.8354 203.791 93.8539L207.369 101.009C210.077 99.6555 213.426 98.9023 217.543 98.9023V90.9023ZM203.791 93.8539C199.81 95.8444 196.52 98.7087 193.957 102.393L200.524 106.962C202.336 104.358 204.605 102.391 207.369 101.009L203.791 93.8539ZM193.957 102.393C191.438 106.013 189.621 110.292 188.433 115.142L196.204 117.045C197.203 112.963 198.667 109.631 200.524 106.962L193.957 102.393ZM188.424 115.18C187.292 120.003 186.746 125.353 186.746 131.201H194.746C194.746 125.838 195.248 121.117 196.213 117.008L188.424 115.18ZM186.746 131.201V139.062H194.746V131.201H186.746ZM186.746 139.062C186.746 145.104 187.441 150.621 188.89 155.568L196.567 153.319C195.373 149.243 194.746 144.505 194.746 139.062H186.746ZM188.9 155.603C190.389 160.515 192.535 164.829 195.394 168.467L201.684 163.525C199.53 160.783 197.803 157.395 196.557 153.283L188.9 155.603ZM195.411 168.489C198.279 172.087 201.74 174.874 205.782 176.789L209.206 169.559C206.321 168.192 203.813 166.195 201.667 163.503L195.411 168.489ZM205.8 176.797C209.888 178.709 214.347 179.635 219.115 179.635V171.635C215.407 171.635 212.119 170.92 209.188 169.55L205.8 176.797ZM219.115 179.635C223.987 179.635 228.175 179.237 231.558 178.339L229.504 170.607C227.054 171.258 223.632 171.635 219.115 171.635V179.635ZM231.614 178.323C234.742 177.443 237.462 176.346 239.586 174.93L235.148 168.273C233.991 169.045 232.154 169.861 229.448 170.622L231.614 178.323ZM239.649 174.887C241.441 173.643 242.988 172.353 244.154 171.003L238.1 165.774C237.534 166.429 236.575 167.282 235.086 168.316L239.649 174.887ZM245.127 168.389V146.104H237.127V168.389H245.127ZM241.127 142.104H218.09V150.104H241.127V142.104ZM222.09 146.104V135.439H214.09V146.104H222.09ZM218.09 139.439H254.252V131.439H218.09V139.439Z" fill="#3F87D9"/>
<path d="M404.133 85.4688L429.973 135.439L455.881 85.4688H470.852L436.535 147.812V185H423.342V147.812L389.025 85.4688H404.133ZM560.197 85.4688V185H546.936L496.828 108.232V185H483.635V85.4688H496.828L547.141 162.441V85.4688H560.197ZM660.139 85.4688V185H646.877L596.77 108.232V185H583.576V85.4688H596.77L647.082 162.441V85.4688H660.139Z" fill="#12D990"/>
<path d="M404.133 85.4688L407.686 83.6315L406.568 81.4688H404.133V85.4688ZM429.973 135.439L426.42 137.277L429.968 144.139L433.524 137.281L429.973 135.439ZM455.881 85.4688V81.4688H453.449L452.33 83.6276L455.881 85.4688ZM470.852 85.4688L474.356 87.3976L477.619 81.4688H470.852V85.4688ZM436.535 147.812L433.031 145.884L432.535 146.784V147.812H436.535ZM436.535 185V189H440.535V185H436.535ZM423.342 185H419.342V189H423.342V185ZM423.342 147.812H427.342V146.784L426.846 145.884L423.342 147.812ZM389.025 85.4688V81.4688H382.258L385.521 87.3976L389.025 85.4688ZM400.58 87.306L426.42 137.277L433.526 133.602L407.686 83.6315L400.58 87.306ZM433.524 137.281L459.432 87.3099L452.33 83.6276L426.422 133.598L433.524 137.281ZM455.881 89.4688H470.852V81.4688H455.881V89.4688ZM467.347 83.5399L433.031 145.884L440.039 149.741L474.356 87.3976L467.347 83.5399ZM432.535 147.812V185H440.535V147.812H432.535ZM436.535 181H423.342V189H436.535V181ZM427.342 185V147.812H419.342V185H427.342ZM426.846 145.884L392.53 83.5399L385.521 87.3976L419.838 149.741L426.846 145.884ZM389.025 89.4688H404.133V81.4688H389.025V89.4688ZM560.197 85.4688H564.197V81.4688H560.197V85.4688ZM560.197 185V189H564.197V185H560.197ZM546.936 185L543.586 187.186L544.77 189H546.936V185ZM496.828 108.232L500.178 106.046L492.828 94.786V108.232H496.828ZM496.828 185V189H500.828V185H496.828ZM483.635 185H479.635V189H483.635V185ZM483.635 85.4688V81.4688H479.635V85.4688H483.635ZM496.828 85.4688L500.176 83.2802L498.992 81.4688H496.828V85.4688ZM547.141 162.441L543.792 164.63L551.141 175.872V162.441H547.141ZM547.141 85.4688V81.4688H543.141V85.4688H547.141ZM556.197 85.4688V185H564.197V85.4688H556.197ZM560.197 181H546.936V189H560.197V181ZM550.285 182.814L500.178 106.046L493.479 110.419L543.586 187.186L550.285 182.814ZM492.828 108.232V185H500.828V108.232H492.828ZM496.828 181H483.635V189H496.828V181ZM487.635 185V85.4688H479.635V185H487.635ZM483.635 89.4688H496.828V81.4688H483.635V89.4688ZM493.48 87.6573L543.792 164.63L550.489 160.253L500.176 83.2802L493.48 87.6573ZM551.141 162.441V85.4688H543.141V162.441H551.141ZM547.141 89.4688H560.197V81.4688H547.141V89.4688ZM660.139 85.4688H664.139V81.4688H660.139V85.4688ZM660.139 185V189H664.139V185H660.139ZM646.877 185L643.527 187.186L644.711 189H646.877V185ZM596.77 108.232L600.119 106.046L592.77 94.786V108.232H596.77ZM596.77 185V189H600.77V185H596.77ZM583.576 185H579.576V189H583.576V185ZM583.576 85.4688V81.4688H579.576V85.4688H583.576ZM596.77 85.4688L600.118 83.2802L598.934 81.4688H596.77V85.4688ZM647.082 162.441L643.734 164.63L651.082 175.872V162.441H647.082ZM647.082 85.4688V81.4688H643.082V85.4688H647.082ZM656.139 85.4688V185H664.139V85.4688H656.139ZM660.139 181H646.877V189H660.139V181ZM650.227 182.814L600.119 106.046L593.42 110.419L643.527 187.186L650.227 182.814ZM592.77 108.232V185H600.77V108.232H592.77ZM596.77 181H583.576V189H596.77V181ZM587.576 185V85.4688H579.576V185H587.576ZM583.576 89.4688H596.77V81.4688H583.576V89.4688ZM593.421 87.6573L643.734 164.63L650.43 160.253L600.118 83.2802L593.421 87.6573ZM651.082 162.441V85.4688H643.082V162.441H651.082ZM647.082 89.4688H660.139V81.4688H647.082V89.4688Z" fill="#12D990"/>
<circle cx="114" cy="79" r="5" fill="#FFB5E6" stroke="#3F87D9" stroke-width="2"/>
<circle cx="118" cy="145" r="5" fill="#FFB5E6" stroke="#3F87D9" stroke-width="2"/>
<path d="M67.1875 118.496H31.1523L30.957 103.359H63.6719C69.0755 103.359 73.7956 102.448 77.832 100.625C81.8685 98.8021 84.9935 96.1979 87.207 92.8125C89.4857 89.362 90.625 85.2604 90.625 80.5078C90.625 75.2995 89.6159 71.0677 87.5977 67.8125C85.6445 64.4922 82.6172 62.0833 78.5156 60.5859C74.4792 59.0234 69.3359 58.2422 63.0859 58.2422H35.3516V185H16.5039V42.8125H63.0859C70.3776 42.8125 76.888 43.5612 82.6172 45.0586C88.3464 46.4909 93.1966 48.7695 97.168 51.8945C101.204 54.9544 104.264 58.8607 106.348 63.6133C108.431 68.3659 109.473 74.0625 109.473 80.7031C109.473 86.5625 107.975 91.8685 104.98 96.6211C101.986 101.309 97.819 105.15 92.4805 108.145C87.207 111.139 81.0221 113.06 73.9258 113.906L67.1875 118.496ZM66.3086 185H23.7305L34.375 169.668H66.3086C72.2982 169.668 77.3763 168.626 81.543 166.543C85.7747 164.46 88.9974 161.53 91.2109 157.754C93.4245 153.913 94.5312 149.388 94.5312 144.18C94.5312 138.906 93.5872 134.349 91.6992 130.508C89.8112 126.667 86.849 123.704 82.8125 121.621C78.776 119.538 73.5677 118.496 67.1875 118.496H40.332L40.5273 103.359H77.2461L81.25 108.828C88.0859 109.414 93.8802 111.367 98.6328 114.688C103.385 117.943 106.999 122.109 109.473 127.188C112.012 132.266 113.281 137.865 113.281 143.984C113.281 152.839 111.328 160.326 107.422 166.445C103.581 172.5 98.1445 177.122 91.1133 180.312C84.082 183.438 75.8138 185 66.3086 185Z" fill="#3F87D9" />
<path d="M67.1875 118.496V122.496H68.4204L69.4394 121.802L67.1875 118.496ZM31.1523 118.496L27.1527 118.548L27.2036 122.496H31.1523V118.496ZM30.957 103.359V99.3594H26.9051L26.9574 103.411L30.957 103.359ZM87.207 92.8125L83.8692 90.6083L83.8641 90.6159L83.8592 90.6235L87.207 92.8125ZM87.5977 67.8125L84.1499 69.8406L84.1735 69.8807L84.198 69.9203L87.5977 67.8125ZM78.5156 60.5859L77.0716 64.3162L77.1076 64.3301L77.1439 64.3434L78.5156 60.5859ZM35.3516 58.2422V54.2422H31.3516V58.2422H35.3516ZM35.3516 185V189H39.3516V185H35.3516ZM16.5039 185H12.5039V189H16.5039V185ZM16.5039 42.8125V38.8125H12.5039V42.8125H16.5039ZM82.6172 45.0586L81.6057 48.9286L81.6263 48.934L81.647 48.9392L82.6172 45.0586ZM97.168 51.8945L94.6944 55.038L94.7228 55.0603L94.7515 55.0821L97.168 51.8945ZM104.98 96.6211L108.351 98.7747L108.358 98.7641L108.365 98.7536L104.98 96.6211ZM92.4805 108.145L90.5235 104.656L90.5143 104.661L90.5052 104.666L92.4805 108.145ZM73.9258 113.906L73.4521 109.934L72.4816 110.05L71.6739 110.6L73.9258 113.906ZM23.7305 185L20.4447 182.719L16.0839 189H23.7305V185ZM34.375 169.668V165.668H32.2826L31.0892 167.387L34.375 169.668ZM81.543 166.543L79.7762 162.954L79.7652 162.96L79.7541 162.965L81.543 166.543ZM91.2109 157.754L94.6617 159.777L94.6692 159.764L94.6767 159.751L91.2109 157.754ZM82.8125 121.621L80.9779 125.176L82.8125 121.621ZM40.332 118.496L36.3324 118.444L36.2801 122.496H40.332V118.496ZM40.5273 103.359V99.3594H36.5786L36.5277 103.308L40.5273 103.359ZM77.2461 103.359L80.4735 100.996L79.275 99.3594H77.2461V103.359ZM81.25 108.828L78.0225 111.191L79.0967 112.658L80.9084 112.814L81.25 108.828ZM98.6328 114.688L96.342 117.967L96.3572 117.977L96.3725 117.988L98.6328 114.688ZM109.473 127.188L105.877 128.939L105.886 128.958L105.895 128.976L109.473 127.188ZM107.422 166.445L104.05 164.293L104.044 164.303L107.422 166.445ZM91.1133 180.312L92.7378 183.968L92.7519 183.961L92.766 183.955L91.1133 180.312ZM67.1875 114.496H31.1523V122.496H67.1875V114.496ZM35.152 118.444L34.9567 103.308L26.9574 103.411L27.1527 118.548L35.152 118.444ZM30.957 107.359H63.6719V99.3594H30.957V107.359ZM63.6719 107.359C69.5211 107.359 74.8237 106.373 79.4784 104.27L76.1857 96.9795C72.7675 98.5232 68.63 99.3594 63.6719 99.3594V107.359ZM79.4784 104.27C84.1407 102.165 87.8852 99.0846 90.5549 95.0015L83.8592 90.6235C82.1018 93.3112 79.5963 95.4392 76.1857 96.9795L79.4784 104.27ZM90.5449 95.0167C93.3172 90.8186 94.625 85.9239 94.625 80.5078H86.625C86.625 84.5969 85.6541 87.9054 83.8692 90.6083L90.5449 95.0167ZM94.625 80.5078C94.625 74.8137 93.5251 69.7819 90.9973 65.7047L84.198 69.9203C85.7067 72.3535 86.625 75.7853 86.625 80.5078H94.625ZM91.0454 65.7844C88.5593 61.5581 84.7374 58.5991 79.8874 56.8285L77.1439 64.3434C80.497 65.5675 82.7297 67.4262 84.1499 69.8406L91.0454 65.7844ZM79.9596 56.8557C75.3066 55.0545 69.6291 54.2422 63.0859 54.2422V62.2422C69.0428 62.2422 73.6518 62.9924 77.0716 64.3162L79.9596 56.8557ZM63.0859 54.2422H35.3516V62.2422H63.0859V54.2422ZM31.3516 58.2422V185H39.3516V58.2422H31.3516ZM35.3516 181H16.5039V189H35.3516V181ZM20.5039 185V42.8125H12.5039V185H20.5039ZM16.5039 46.8125H63.0859V38.8125H16.5039V46.8125ZM63.0859 46.8125C70.1116 46.8125 76.2725 47.5347 81.6057 48.9286L83.6287 41.1886C77.5035 39.5877 70.6436 38.8125 63.0859 38.8125V46.8125ZM81.647 48.9392C86.9201 50.2574 91.2351 52.316 94.6944 55.038L99.6415 48.751C95.1581 45.2231 89.7726 42.7243 83.5873 41.178L81.647 48.9392ZM94.7515 55.0821C98.2305 57.7194 100.868 61.0756 102.684 65.2192L110.011 62.0074C107.661 56.6458 104.178 52.1895 99.5844 48.7069L94.7515 55.0821ZM102.684 65.2192C104.493 69.3451 105.473 74.4667 105.473 80.7031H113.473C113.473 73.6583 112.369 67.3867 110.011 62.0074L102.684 65.2192ZM105.473 80.7031C105.473 85.842 104.171 90.4028 101.596 94.4886L108.365 98.7536C111.78 93.3342 113.473 87.283 113.473 80.7031H105.473ZM101.61 94.4675C99.0038 98.5463 95.3469 101.95 90.5235 104.656L94.4375 111.633C100.291 108.349 104.968 104.071 108.351 98.7747L101.61 94.4675ZM90.5052 104.666C85.7693 107.356 80.1129 109.14 73.4521 109.934L74.3995 117.878C81.9314 116.98 88.6447 114.923 94.4558 111.623L90.5052 104.666ZM71.6739 110.6L64.9356 115.19L69.4394 121.802L76.1776 117.212L71.6739 110.6ZM66.3086 181H23.7305V189H66.3086V181ZM27.0162 187.281L37.6608 171.949L31.0892 167.387L20.4447 182.719L27.0162 187.281ZM34.375 173.668H66.3086V165.668H34.375V173.668ZM66.3086 173.668C72.7474 173.668 78.4742 172.549 83.3318 170.121L79.7541 162.965C76.2784 164.703 71.8489 165.668 66.3086 165.668V173.668ZM83.3097 170.132C88.1869 167.731 92.0212 164.281 94.6617 159.777L87.7601 155.731C85.9736 158.779 83.3626 161.189 79.7762 162.954L83.3097 170.132ZM94.6767 159.751C97.2971 155.204 98.5312 149.966 98.5312 144.18H90.5312C90.5312 148.81 89.5518 152.622 87.7452 155.757L94.6767 159.751ZM98.5312 144.18C98.5312 138.434 97.5022 133.246 95.289 128.743L88.1094 132.272C89.6722 135.452 90.5312 139.379 90.5312 144.18H98.5312ZM95.289 128.743C92.9989 124.084 89.3956 120.517 84.6471 118.067L80.9779 125.176C84.3023 126.891 86.6235 129.249 88.1094 132.272L95.289 128.743ZM84.6471 118.067C79.861 115.596 73.9631 114.496 67.1875 114.496V122.496C73.1723 122.496 77.6911 123.479 80.9779 125.176L84.6471 118.067ZM67.1875 114.496H40.332V122.496H67.1875V114.496ZM44.3317 118.548L44.527 103.411L36.5277 103.308L36.3324 118.444L44.3317 118.548ZM40.5273 107.359H77.2461V99.3594H40.5273V107.359ZM74.0186 105.722L78.0225 111.191L84.4775 106.465L80.4735 100.996L74.0186 105.722ZM80.9084 112.814C87.173 113.35 92.2635 115.117 96.342 117.967L100.924 111.408C95.4969 107.617 88.9989 105.478 81.5916 104.843L80.9084 112.814ZM96.3725 117.988C100.565 120.859 103.713 124.497 105.877 128.939L113.069 125.436C110.285 119.722 106.206 115.026 100.893 111.387L96.3725 117.988ZM105.895 128.976C108.135 133.456 109.281 138.436 109.281 143.984H117.281C117.281 137.293 115.888 131.075 113.05 125.399L105.895 128.976ZM109.281 143.984C109.281 152.244 107.464 158.945 104.05 164.293L110.794 168.597C115.192 161.706 117.281 153.433 117.281 143.984H109.281ZM104.044 164.303C100.652 169.649 95.8401 173.775 89.4606 176.67L92.766 183.955C100.449 180.469 106.509 175.351 110.8 168.588L104.044 164.303ZM89.4887 176.657C83.0743 179.508 75.3823 181 66.3086 181V189C76.2453 189 85.0897 187.367 92.7378 183.968L89.4887 176.657Z" fill="#3F87D9"/>
<path d="M355.849 31.8494L359.66 46.0702L370.07 35.6599L355.849 31.8494Z" fill="#D84242" stroke="#390B0B" stroke-width="4"/>
<g filter="url(#filter0_i_1_16)">
<path d="M368.756 66.698L371.035 56.943V50.2685L366.877 41.8659L356.467 40L346.458 43.7317L341.653 52.128L336.849 81.6707L334 105.718V141.658L336.849 164.248L341.653 177.597L351.093 188.379L362.488 193H374.084L381.291 186.781L383 177.597L376.163 167.329L368.756 153.466L364.875 139.604L362.488 119.067L364.875 95.4497L366.877 81.6707L368.756 66.698Z" fill="#D63F3F"/>
</g>
<path d="M368.756 66.698L371.035 56.943V50.2685L366.877 41.8659L356.467 40L346.458 43.7317L341.653 52.128L336.849 81.6707L334 105.718V141.658L336.849 164.248L341.653 177.597L351.093 188.379L362.488 193H374.084L381.291 186.781L383 177.597L376.163 167.329L368.756 153.466L364.875 139.604L362.488 119.067L364.875 95.4497L366.877 81.6707L368.756 66.698Z" stroke="#390B0B" stroke-width="4" stroke-linejoin="round"/>
<defs>
<filter id="filter0_i_1_16" x="332" y="38" width="53" height="161" filterUnits="userSpaceOnUse" color-interpolation-filters="sRGB">
<feFlood flood-opacity="0" result="BackgroundImageFix"/>
<feBlend mode="normal" in="SourceGraphic" in2="BackgroundImageFix" result="shape"/>
<feColorMatrix in="SourceAlpha" type="matrix" values="0 0 0 0 0 0 0 0 0 0 0 0 0 0 0 0 0 0 127 0" result="hardAlpha"/>
<feOffset dy="4"/>
<feGaussianBlur stdDeviation="2"/>
<feComposite in2="hardAlpha" operator="arithmetic" k2="-1" k3="1"/>
<feColorMatrix type="matrix" values="0 0 0 0 0 0 0 0 0 0 0 0 0 0 0 0 0 0 0.25 0"/>
<feBlend mode="normal" in2="shape" result="effect1_innerShadow_1_16"/>
</filter>
</defs>
</svg>
