<?xml version="1.0" standalone="no"?>
<!DOCTYPE svg PUBLIC "-//W3C//DTD SVG 20010904//EN"
 "http://www.w3.org/TR/2001/REC-SVG-20010904/DTD/svg10.dtd">
<svg version="1.0" xmlns="http://www.w3.org/2000/svg"
 width="234.000000pt" height="234.000000pt" viewBox="0 0 234.000000 234.000000"
 preserveAspectRatio="xMidYMid meet">
<metadata>
Created by potrace 1.14, written by Peter Selinger 2001-2017
</metadata>
<g transform="translate(0.000000,234.000000) scale(0.100000,-0.100000)"
fill="#000000" stroke="none">
<path d="M1794 2024 c4 -10 10 -34 13 -51 4 -26 2 -33 -10 -33 -37 0 -88 -35
-113 -77 -23 -40 -55 -192 -78 -378 -3 -22 -9 -67 -13 -100 -17 -131 -8 -568
13 -675 12 -60 50 -162 69 -184 75 -87 90 -100 145 -122 42 -17 79 -24 126
-24 65 0 68 1 109 43 34 34 43 51 48 90 6 45 4 53 -32 105 -77 115 -129 238
-145 342 -10 67 -20 165 -20 180 1 14 6 67 20 209 3 30 8 63 10 74 2 11 8 57
14 101 19 143 20 152 30 187 16 56 12 116 -14 168 l-24 50 24 22 c13 12 24 26
24 29 0 4 -39 17 -87 30 -49 13 -94 25 -102 28 -11 4 -13 1 -7 -14z"/>
<path d="M206 1168 c1 -409 2 -747 3 -751 0 -5 153 -7 339 -4 268 3 346 7 382
19 184 63 277 160 314 329 4 18 14 29 31 33 54 14 54 98 0 112 -14 3 -25 10
-25 15 0 5 0 11 0 14 0 3 -10 31 -22 62 -28 77 -69 135 -123 177 l-45 34 34
25 c43 33 91 109 107 169 10 35 19 48 36 53 53 13 52 97 -1 111 -18 4 -27 16
-36 51 -36 145 -146 242 -315 277 -52 11 -149 15 -375 16 l-305 1 1 -743z
m644 489 c69 -30 99 -86 94 -174 -5 -86 -62 -149 -151 -168 -26 -5 -230 -9
-304 -6 -14 1 -16 22 -16 185 l1 185 170 -3 c127 -3 180 -7 206 -19z m34 -611
c71 -35 97 -84 98 -183 2 -118 -54 -189 -167 -211 -27 -5 -115 -9 -195 -8
l-145 1 -1 210 c0 116 0 213 2 216 2 3 82 4 178 3 168 -1 177 -2 230 -28z"/>
</g>
</svg>
