<svg width="205" height="234" viewBox="0 0 205 234" fill="none" xmlns="http://www.w3.org/2000/svg">
<path d="M175.849 23.8494L179.66 38.0702L190.07 27.6599L175.849 23.8494Z" fill="#D84242" stroke="black" stroke-width="2"/>
<g filter="url(#filter0_i_2_31)">
<path d="M188.756 58.698L191.035 48.943V42.2685L186.877 33.8659L176.467 32L166.458 35.7317L161.653 44.128L156.849 73.6707L154 97.7181V133.658L156.849 156.248L161.653 169.597L171.093 180.379L182.488 185H194.084L201.291 178.781L203 169.597L196.163 159.329L188.756 145.466L184.875 131.604L182.488 111.067L184.875 87.4497L186.877 73.6707L188.756 58.698Z" fill="#D63F3F"/>
</g>
<path d="M188.756 58.698L191.035 48.943V42.2685L186.877 33.8659L176.467 32L166.458 35.7317L161.653 44.128L156.849 73.6707L154 97.7181V133.658L156.849 156.248L161.653 169.597L171.093 180.379L182.488 185H194.084L201.291 178.781L203 169.597L196.163 159.329L188.756 145.466L184.875 131.604L182.488 111.067L184.875 87.4497L186.877 73.6707L188.756 58.698Z" stroke="#390B0B" stroke-width="4" stroke-linejoin="round"/>
<circle cx="114" cy="79" r="5" fill="#FFB5E6" stroke="#3F87D9" stroke-width="4"/>
<circle cx="118" cy="145" r="5" fill="#FFB5E6" stroke="#3F87D9" stroke-width="4"/>
<path d="M67.1875 118.496H31.1523L30.957 103.359H63.6719C69.0755 103.359 73.7956 102.448 77.832 100.625C81.8685 98.8021 84.9935 96.1979 87.207 92.8125C89.4857 89.362 90.625 85.2604 90.625 80.5078C90.625 75.2995 89.6159 71.0677 87.5977 67.8125C85.6445 64.4922 82.6172 62.0833 78.5156 60.5859C74.4792 59.0234 69.3359 58.2422 63.0859 58.2422H35.3516V185H16.5039V42.8125H63.0859C70.3776 42.8125 76.888 43.5612 82.6172 45.0586C88.3464 46.4909 93.1966 48.7695 97.168 51.8945C101.204 54.9544 104.264 58.8607 106.348 63.6133C108.431 68.3659 109.473 74.0625 109.473 80.7031C109.473 86.5625 107.975 91.8685 104.98 96.6211C101.986 101.309 97.819 105.15 92.4805 108.145C87.207 111.139 81.0221 113.06 73.9258 113.906L67.1875 118.496ZM66.3086 185H23.7305L34.375 169.668H66.3086C72.2982 169.668 77.3763 168.626 81.543 166.543C85.7747 164.46 88.9974 161.53 91.2109 157.754C93.4245 153.913 94.5312 149.388 94.5312 144.18C94.5312 138.906 93.5872 134.349 91.6992 130.508C89.8112 126.667 86.849 123.704 82.8125 121.621C78.776 119.538 73.5677 118.496 67.1875 118.496H40.332L40.5273 103.359H77.2461L81.25 108.828C88.0859 109.414 93.8802 111.367 98.6328 114.688C103.385 117.943 106.999 122.109 109.473 127.188C112.012 132.266 113.281 137.865 113.281 143.984C113.281 152.839 111.328 160.326 107.422 166.445C103.581 172.5 98.1445 177.122 91.1133 180.312C84.082 183.438 75.8138 185 66.3086 185Z" fill="#D1E0F2"/>
<path d="M67.1875 118.496V122.496H68.4204L69.4394 121.802L67.1875 118.496ZM31.1523 118.496L27.1527 118.548L27.2036 122.496H31.1523V118.496ZM30.957 103.359V99.3594H26.9051L26.9574 103.411L30.957 103.359ZM87.207 92.8125L83.8692 90.6083L83.8641 90.6159L83.8592 90.6235L87.207 92.8125ZM87.5977 67.8125L84.1499 69.8406L84.1735 69.8807L84.198 69.9203L87.5977 67.8125ZM78.5156 60.5859L77.0716 64.3162L77.1076 64.3301L77.1439 64.3434L78.5156 60.5859ZM35.3516 58.2422V54.2422H31.3516V58.2422H35.3516ZM35.3516 185V189H39.3516V185H35.3516ZM16.5039 185H12.5039V189H16.5039V185ZM16.5039 42.8125V38.8125H12.5039V42.8125H16.5039ZM82.6172 45.0586L81.6057 48.9286L81.6263 48.934L81.647 48.9392L82.6172 45.0586ZM97.168 51.8945L94.6944 55.038L94.7228 55.0603L94.7515 55.0821L97.168 51.8945ZM104.98 96.6211L108.351 98.7747L108.358 98.7641L108.365 98.7536L104.98 96.6211ZM92.4805 108.145L90.5235 104.656L90.5143 104.661L90.5052 104.666L92.4805 108.145ZM73.9258 113.906L73.4521 109.934L72.4816 110.05L71.6739 110.6L73.9258 113.906ZM23.7305 185L20.4447 182.719L16.0839 189H23.7305V185ZM34.375 169.668V165.668H32.2826L31.0892 167.387L34.375 169.668ZM81.543 166.543L79.7762 162.954L79.7652 162.96L79.7541 162.965L81.543 166.543ZM91.2109 157.754L94.6617 159.777L94.6692 159.764L94.6767 159.751L91.2109 157.754ZM82.8125 121.621L80.9779 125.176L82.8125 121.621ZM40.332 118.496L36.3324 118.444L36.2801 122.496H40.332V118.496ZM40.5273 103.359V99.3594H36.5786L36.5277 103.308L40.5273 103.359ZM77.2461 103.359L80.4735 100.996L79.275 99.3594H77.2461V103.359ZM81.25 108.828L78.0225 111.191L79.0967 112.658L80.9084 112.814L81.25 108.828ZM98.6328 114.688L96.342 117.967L96.3572 117.977L96.3725 117.988L98.6328 114.688ZM109.473 127.188L105.877 128.939L105.886 128.958L105.895 128.976L109.473 127.188ZM107.422 166.445L104.05 164.293L104.044 164.303L107.422 166.445ZM91.1133 180.312L92.7378 183.968L92.7519 183.961L92.766 183.955L91.1133 180.312ZM67.1875 114.496H31.1523V122.496H67.1875V114.496ZM35.152 118.444L34.9567 103.308L26.9574 103.411L27.1527 118.548L35.152 118.444ZM30.957 107.359H63.6719V99.3594H30.957V107.359ZM63.6719 107.359C69.5211 107.359 74.8237 106.373 79.4784 104.27L76.1857 96.9795C72.7675 98.5232 68.63 99.3594 63.6719 99.3594V107.359ZM79.4784 104.27C84.1407 102.165 87.8852 99.0846 90.5549 95.0015L83.8592 90.6235C82.1018 93.3112 79.5963 95.4392 76.1857 96.9795L79.4784 104.27ZM90.5449 95.0167C93.3172 90.8186 94.625 85.9239 94.625 80.5078H86.625C86.625 84.5969 85.6541 87.9054 83.8692 90.6083L90.5449 95.0167ZM94.625 80.5078C94.625 74.8137 93.5251 69.7819 90.9973 65.7047L84.198 69.9203C85.7067 72.3535 86.625 75.7853 86.625 80.5078H94.625ZM91.0454 65.7844C88.5593 61.5581 84.7374 58.5991 79.8874 56.8285L77.1439 64.3434C80.497 65.5675 82.7297 67.4262 84.1499 69.8406L91.0454 65.7844ZM79.9596 56.8557C75.3066 55.0545 69.6291 54.2422 63.0859 54.2422V62.2422C69.0428 62.2422 73.6518 62.9924 77.0716 64.3162L79.9596 56.8557ZM63.0859 54.2422H35.3516V62.2422H63.0859V54.2422ZM31.3516 58.2422V185H39.3516V58.2422H31.3516ZM35.3516 181H16.5039V189H35.3516V181ZM20.5039 185V42.8125H12.5039V185H20.5039ZM16.5039 46.8125H63.0859V38.8125H16.5039V46.8125ZM63.0859 46.8125C70.1116 46.8125 76.2725 47.5347 81.6057 48.9286L83.6287 41.1886C77.5035 39.5877 70.6436 38.8125 63.0859 38.8125V46.8125ZM81.647 48.9392C86.9201 50.2574 91.2351 52.316 94.6944 55.038L99.6415 48.751C95.1581 45.2231 89.7726 42.7243 83.5873 41.178L81.647 48.9392ZM94.7515 55.0821C98.2305 57.7194 100.868 61.0756 102.684 65.2192L110.011 62.0074C107.661 56.6458 104.178 52.1895 99.5844 48.7069L94.7515 55.0821ZM102.684 65.2192C104.493 69.3451 105.473 74.4667 105.473 80.7031H113.473C113.473 73.6583 112.369 67.3867 110.011 62.0074L102.684 65.2192ZM105.473 80.7031C105.473 85.842 104.171 90.4028 101.596 94.4886L108.365 98.7536C111.78 93.3342 113.473 87.283 113.473 80.7031H105.473ZM101.61 94.4675C99.0038 98.5463 95.3469 101.95 90.5235 104.656L94.4375 111.633C100.291 108.349 104.968 104.071 108.351 98.7747L101.61 94.4675ZM90.5052 104.666C85.7693 107.356 80.1129 109.14 73.4521 109.934L74.3995 117.878C81.9314 116.98 88.6447 114.923 94.4558 111.623L90.5052 104.666ZM71.6739 110.6L64.9356 115.19L69.4394 121.802L76.1776 117.212L71.6739 110.6ZM66.3086 181H23.7305V189H66.3086V181ZM27.0162 187.281L37.6608 171.949L31.0892 167.387L20.4447 182.719L27.0162 187.281ZM34.375 173.668H66.3086V165.668H34.375V173.668ZM66.3086 173.668C72.7474 173.668 78.4742 172.549 83.3318 170.121L79.7541 162.965C76.2784 164.703 71.8489 165.668 66.3086 165.668V173.668ZM83.3097 170.132C88.1869 167.731 92.0212 164.281 94.6617 159.777L87.7601 155.731C85.9736 158.779 83.3626 161.189 79.7762 162.954L83.3097 170.132ZM94.6767 159.751C97.2971 155.204 98.5312 149.966 98.5312 144.18H90.5312C90.5312 148.81 89.5518 152.622 87.7452 155.757L94.6767 159.751ZM98.5312 144.18C98.5312 138.434 97.5022 133.246 95.289 128.743L88.1094 132.272C89.6722 135.452 90.5312 139.379 90.5312 144.18H98.5312ZM95.289 128.743C92.9989 124.084 89.3956 120.517 84.6471 118.067L80.9779 125.176C84.3023 126.891 86.6235 129.249 88.1094 132.272L95.289 128.743ZM84.6471 118.067C79.861 115.596 73.9631 114.496 67.1875 114.496V122.496C73.1723 122.496 77.6911 123.479 80.9779 125.176L84.6471 118.067ZM67.1875 114.496H40.332V122.496H67.1875V114.496ZM44.3317 118.548L44.527 103.411L36.5277 103.308L36.3324 118.444L44.3317 118.548ZM40.5273 107.359H77.2461V99.3594H40.5273V107.359ZM74.0186 105.722L78.0225 111.191L84.4775 106.465L80.4735 100.996L74.0186 105.722ZM80.9084 112.814C87.173 113.35 92.2635 115.117 96.342 117.967L100.924 111.408C95.4969 107.617 88.9989 105.478 81.5916 104.843L80.9084 112.814ZM96.3725 117.988C100.565 120.859 103.713 124.497 105.877 128.939L113.069 125.436C110.285 119.722 106.206 115.026 100.893 111.387L96.3725 117.988ZM105.895 128.976C108.135 133.456 109.281 138.436 109.281 143.984H117.281C117.281 137.293 115.888 131.075 113.05 125.399L105.895 128.976ZM109.281 143.984C109.281 152.244 107.464 158.945 104.05 164.293L110.794 168.597C115.192 161.706 117.281 153.433 117.281 143.984H109.281ZM104.044 164.303C100.652 169.649 95.8401 173.775 89.4606 176.67L92.766 183.955C100.449 180.469 106.509 175.351 110.8 168.588L104.044 164.303ZM89.4887 176.657C83.0743 179.508 75.3823 181 66.3086 181V189C76.2453 189 85.0897 187.367 92.7378 183.968L89.4887 176.657Z" fill="#3F87D9"/>
<defs>
<filter id="filter0_i_2_31" x="152" y="30" width="53" height="161" filterUnits="userSpaceOnUse" color-interpolation-filters="sRGB">
<feFlood flood-opacity="0" result="BackgroundImageFix"/>
<feBlend mode="normal" in="SourceGraphic" in2="BackgroundImageFix" result="shape"/>
<feColorMatrix in="SourceAlpha" type="matrix" values="0 0 0 0 0 0 0 0 0 0 0 0 0 0 0 0 0 0 127 0" result="hardAlpha"/>
<feOffset dy="4"/>
<feGaussianBlur stdDeviation="2"/>
<feComposite in2="hardAlpha" operator="arithmetic" k2="-1" k3="1"/>
<feColorMatrix type="matrix" values="0 0 0 0 0 0 0 0 0 0 0 0 0 0 0 0 0 0 0.25 0"/>
<feBlend mode="normal" in2="shape" result="effect1_innerShadow_2_31"/>
</filter>
</defs>
</svg>
